<?xml version="1.0" encoding="utf-8"?>
<!-- Generator: Adobe Illustrator 23.0.0, SVG Export Plug-In . SVG Version: 6.00 Build 0)  -->
<svg version="1.1" id="icon" xmlns="http://www.w3.org/2000/svg" xmlns:xlink="http://www.w3.org/1999/xlink" x="0px" y="0px"
	 viewBox="0 0 256 256" style="enable-background:new 0 0 256 256;" xml:space="preserve">
<style type="text/css">
	.st2{fill:url(#h_1_);}
</style>
<linearGradient id="h_1_" gradientUnits="userSpaceOnUse" x1="46.1017" y1="44.1009" x2="215.9759" y2="213.9751">
	<stop  offset="0" style="stop-color:#00263F"/>
	<stop  offset="1" style="stop-color:#225284"/>
</linearGradient>
<path id="h" class="st2" d="M114.37,237.97c-0.1,0-0.19-0.01-0.29-0.04l-58.83-17.6c-0.42-0.13-0.71-0.52-0.71-0.96V36.08
	c0-0.45,0.29-0.84,0.72-0.96l58.86-17.05c0.09-0.03,0.19-0.04,0.28-0.04c0.21,0,0.43,0.07,0.6,0.2c0.25,0.19,0.4,0.49,0.4,0.8
	l-0.37,91.59l41.45,0.21l0.66-91.48c0-0.32,0.15-0.61,0.41-0.8c0.17-0.13,0.38-0.19,0.59-0.19c0.1,0,0.2,0.01,0.29,0.04l41.78,12.7
	c0.42,0.13,0.71,0.52,0.71,0.95l0.56,196c0,0.48-0.34,0.9-0.81,0.99l-44.29,8.42c-0.06,0.01-0.12,0.02-0.19,0.02
	c-0.23,0-0.46-0.08-0.64-0.23c-0.23-0.19-0.36-0.47-0.36-0.77l0.4-74.19h-40.11l-0.1,74.68c0,0.32-0.15,0.61-0.4,0.8
	C114.79,237.9,114.58,237.97,114.37,237.97z"/>
</svg>
